<svg width="41" height="41" viewBox="0 0 41 41" fill="none" xmlns="http://www.w3.org/2000/svg">
<path fill-rule="evenodd" clip-rule="evenodd" d="M0.34375 18.7083C0.34375 8.56589 8.56589 0.34375 18.7083 0.34375C28.8508 0.34375 37.0729 8.56589 37.0729 18.7083C37.0729 22.2903 36.0474 25.6329 34.2739 28.4582C34.4555 28.6092 34.6369 28.7597 34.818 28.9099L34.8778 28.9595C36.3418 30.1738 37.795 31.3792 39.2303 32.7101C40.9532 34.3078 41.1908 36.7927 39.5166 38.5245C39.3631 38.6832 39.1995 38.8497 39.0252 39.0241C38.8509 39.1985 38.6845 39.3622 38.5259 39.5158C36.7951 41.1915 34.3114 40.9535 32.7148 39.2293C31.3848 37.793 30.1803 36.3388 28.9669 34.8738L28.9174 34.8139C28.767 34.6326 28.6166 34.451 28.4658 34.2692C25.6388 36.0456 22.2936 37.0729 18.7083 37.0729C8.56589 37.0729 0.34375 28.8508 0.34375 18.7083ZM4.82292 18.7083C4.82292 11.0396 11.0396 4.82292 18.7083 4.82292C26.377 4.82292 32.5938 11.0396 32.5938 18.7083C32.5938 26.377 26.377 32.5938 18.7083 32.5938C11.0396 32.5938 4.82292 26.377 4.82292 18.7083Z" fill="#EDEDEE"/>
</svg>
