<svg width="70" height="259" viewBox="0 0 70 259" fill="none" xmlns="http://www.w3.org/2000/svg">
<path d="M0 177.309C0.365814 178.372 0.511627 179.498 0.428543 180.62C0.392647 203.238 8.34635 225.133 22.8707 242.399C26.9227 247.461 31.3124 252.236 35.858 256.913C37.936 259.049 37.9814 259.003 40.2672 257.2L60.5859 241.367L61.2807 240.838C63.2288 239.185 63.2873 238.989 61.521 237.121C55.5167 231.001 50.1389 224.289 45.4687 217.088C43.0898 213.256 41.093 209.198 39.5075 204.971C39.3289 204.535 39.1855 204.085 39.0789 203.626C38.7672 202.208 39.0789 201.803 40.6309 201.666C41.3711 201.594 42.1309 201.666 42.8971 201.666H66.2743C69.4433 201.666 69.6381 201.424 69.6641 198.282C69.6641 177.916 69.6641 157.565 69.6641 137.229C69.6641 134.113 69.4758 133.917 66.2289 133.917C45.263 133.895 24.2993 133.895 3.33775 133.917C2.19901 133.772 1.04419 134.001 0.045433 134.57L0 177.309Z" fill="#E40E53"/>
<path d="M0.0124664 67.5252C1.1549 68.0137 2.3995 68.2111 3.63595 68.1H65.9366C66.5081 68.1 67.0795 68.1 67.651 68.0543C68.8653 67.9824 69.5991 67.4011 69.5991 66.1339C69.5991 65.4807 69.6445 64.8276 69.6445 64.1744V3.97676C69.6445 3.51953 69.6445 3.0427 69.6445 2.58547C69.5276 0.475677 69.2614 0.188276 67.1185 0.0445751C66.4691 -0.00114795 65.7807 0.0445751 65.1119 0.0445751H4.53208C3.00969 -0.092565 1.47552 0.0875541 0.025444 0.573664L0.0124664 67.5252Z" fill="#E40E53"/>
</svg>
