<svg width="289" height="290" viewBox="0 0 289 290" fill="none" xmlns="http://www.w3.org/2000/svg">
<path d="M25.2437 145C25.2437 175.352 37.3011 204.462 58.7635 225.924C80.2259 247.386 109.335 259.444 139.688 259.444C170.04 259.444 199.149 247.386 220.612 225.924C242.074 204.462 254.132 175.352 254.132 145C254.132 114.647 242.074 85.5382 220.612 64.0758C199.149 42.6134 170.04 30.5559 139.688 30.5559C109.335 30.5559 80.2259 42.6134 58.7635 64.0758C37.3011 85.5382 25.2437 114.647 25.2437 145Z" fill="#D7E6F8"/>
<path d="M138.506 155.698C100.802 155.645 64.5605 170.28 37.4663 196.5C46.9431 215.293 61.4174 231.11 79.2984 242.213C97.1795 253.316 117.775 259.274 138.822 259.433C159.869 259.593 180.553 253.947 198.6 243.116C216.647 232.286 231.359 216.69 241.119 198.042C227.634 184.591 211.631 173.929 194.025 166.663C176.418 159.398 157.553 155.672 138.506 155.698Z" fill="#B0D9FF"/>
<path d="M241.117 198.053C224.165 181.163 203.307 168.716 180.393 161.817H158.76C154.072 161.713 149.497 163.261 145.835 166.19C142.174 169.119 139.659 173.243 138.732 177.84C138.263 180.603 138.403 183.436 139.141 186.141C139.88 188.845 141.2 191.356 143.008 193.497C144.817 195.639 147.072 197.36 149.614 198.541C152.157 199.722 154.927 200.334 157.73 200.334C160.09 200.339 162.417 200.885 164.533 201.93C166.65 202.974 168.498 204.49 169.938 206.36C171.377 208.23 172.369 210.405 172.837 212.718C173.306 215.031 173.238 217.421 172.639 219.703C171.676 223.058 169.63 225.999 166.821 228.069C164.011 230.14 160.595 231.222 157.106 231.148H102.127C92.6865 231.159 83.5211 234.33 76.0913 240.154C89.4487 249.077 104.534 255.088 120.367 257.799C136.2 260.509 152.426 259.858 167.99 255.887C183.555 251.916 198.11 244.714 210.709 234.75C223.308 224.785 233.669 212.281 241.12 198.05L241.117 198.053Z" fill="white"/>
<path d="M241.119 198.05C214.129 171.193 177.685 155.988 139.609 155.698C101.534 155.408 64.8628 170.057 37.4663 196.5" stroke="#020064" stroke-width="2" stroke-linecap="round" stroke-linejoin="round"/>
<path d="M241.117 198.053C224.165 181.163 203.307 168.716 180.393 161.817H158.76C154.072 161.713 149.497 163.261 145.835 166.19C142.174 169.119 139.659 173.243 138.732 177.84C138.263 180.603 138.403 183.436 139.141 186.141C139.88 188.845 141.2 191.356 143.008 193.497C144.817 195.639 147.072 197.36 149.614 198.541C152.157 199.722 154.927 200.334 157.73 200.334C160.09 200.339 162.417 200.885 164.533 201.93C166.65 202.974 168.498 204.49 169.938 206.36C171.377 208.23 172.369 210.405 172.837 212.718C173.306 215.031 173.238 217.421 172.639 219.703C171.676 223.058 169.63 225.999 166.821 228.069C164.011 230.14 160.595 231.222 157.106 231.148H102.127C92.6865 231.159 83.5211 234.33 76.0913 240.154" stroke="#020064" stroke-width="2" stroke-linecap="round" stroke-linejoin="round"/>
<path d="M208.354 157.686C212.528 157.686 216.53 159.344 219.481 162.295C222.432 165.246 224.09 169.249 224.09 173.422C224.09 180.003 215.098 193.796 210.709 200.145C210.446 200.525 210.094 200.837 209.684 201.051C209.274 201.266 208.818 201.379 208.356 201.379C207.893 201.379 207.437 201.266 207.027 201.051C206.617 200.837 206.266 200.525 206.002 200.145C201.613 193.799 192.618 179.991 192.618 173.422C192.618 169.249 194.276 165.246 197.227 162.295C200.178 159.344 204.181 157.686 208.354 157.686Z" fill="#B0D9FF" stroke="#020064" stroke-width="2" stroke-linecap="round" stroke-linejoin="round"/>
<path d="M201.201 173.422C201.201 175.319 201.955 177.139 203.296 178.48C204.638 179.821 206.457 180.575 208.354 180.575C210.251 180.575 212.07 179.821 213.412 178.48C214.753 177.139 215.507 175.319 215.507 173.422C215.507 171.525 214.753 169.706 213.412 168.365C212.07 167.023 210.251 166.27 208.354 166.27C206.457 166.27 204.638 167.023 203.296 168.365C201.955 169.706 201.201 171.525 201.201 173.422Z" fill="white" stroke="#020064" stroke-width="2" stroke-linecap="round" stroke-linejoin="round"/>
<path d="M56.7388 89.8608C63.1829 89.8616 69.3628 92.422 73.9191 96.979C78.4755 101.536 81.0352 107.716 81.0352 114.16C81.0352 125.004 65.1676 148.614 59.0792 157.277C58.8152 157.653 58.4646 157.96 58.057 158.172C57.6494 158.384 57.1967 158.494 56.7373 158.494C56.2779 158.494 55.8253 158.384 55.4177 158.172C55.0101 157.96 54.6595 157.653 54.3955 157.277C48.3071 148.616 32.4395 125.007 32.4395 114.163C32.4391 110.972 33.0673 107.812 34.2883 104.863C35.5093 101.915 37.2991 99.2357 39.5555 96.979C41.812 94.7223 44.4909 92.9321 47.4392 91.7108C50.3875 90.4895 53.5475 89.8608 56.7388 89.8608Z" fill="#B0D9FF" stroke="#020064" stroke-width="2" stroke-linecap="round" stroke-linejoin="round"/>
<path d="M45.6948 114.16C45.6948 117.089 46.8584 119.898 48.9295 121.969C51.0006 124.041 53.8097 125.204 56.7387 125.204C59.6677 125.204 62.4767 124.041 64.5478 121.969C66.619 119.898 67.7825 117.089 67.7825 114.16C67.7825 111.231 66.619 108.422 64.5478 106.351C62.4767 104.28 59.6677 103.116 56.7387 103.116C53.8097 103.116 51.0006 104.28 48.9295 106.351C46.8584 108.422 45.6948 111.231 45.6948 114.16Z" fill="white" stroke="#020064" stroke-width="2" stroke-linecap="round" stroke-linejoin="round"/>
<path d="M88.0732 139.45C106.03 122.111 134.105 119.09 158.356 125.033C174.275 128.935 189.717 136.543 200.414 148.963" stroke="#020064" stroke-width="2" stroke-linecap="round" stroke-linejoin="round"/>
<path d="M257.514 92.9279C257.428 93.1317 257.426 93.3611 257.51 93.566C257.593 93.7709 257.754 93.9344 257.957 94.0208C258.325 94.1767 258.659 94.4035 258.939 94.6883C259.219 94.9731 259.44 95.3103 259.59 95.6807C259.74 96.0511 259.816 96.4473 259.812 96.8469C259.809 97.2464 259.727 97.6414 259.571 98.0092L258.549 100.418C258.24 101.151 257.663 101.737 256.936 102.058C249.191 105.407 240.847 107.15 232.409 107.181C223.971 107.212 215.614 105.53 207.845 102.238L143.07 74.7771C141.582 74.1802 140.267 73.2215 139.244 71.988C138.221 70.7544 137.522 69.2851 137.21 67.713C136.907 66.0293 137.069 64.2949 137.679 62.6966C138.29 61.0983 139.324 59.6969 140.672 58.6433C144.238 55.8377 148.487 54.034 152.983 53.4185C157.478 52.8029 162.056 53.3976 166.245 55.1413L236.805 85.0398C237.471 85.3215 238.204 85.403 238.916 85.2745C239.627 85.1459 240.285 84.8128 240.811 84.316L252.919 72.8172C253.349 72.4087 253.889 72.135 254.472 72.0298C255.056 71.9245 255.658 71.9924 256.203 72.225L261.925 74.6626C262.666 74.9773 263.251 75.5727 263.553 76.3182C263.855 77.0637 263.849 77.8985 263.536 78.6396L257.514 92.9279Z" fill="#B0D9FF" stroke="#020064" stroke-width="2" stroke-linecap="round" stroke-linejoin="round"/>
<path d="M171.223 76.2049L242.373 106.327C231.247 108.171 219.83 106.965 209.336 102.836L209.267 102.807C209.072 102.733 208.881 102.653 208.695 102.576L208.492 102.493L207.919 102.258L207.839 102.224L149.252 77.398C152.59 75.5625 156.298 74.5022 160.102 74.2956C163.905 74.0891 167.706 74.7416 171.223 76.2049Z" fill="white" stroke="#020064" stroke-width="2" stroke-linecap="round" stroke-linejoin="round"/>
<path d="M215.968 76.2162L239.489 61.9708C239.968 61.6806 240.357 61.2638 240.615 60.7662C240.872 60.2686 240.987 59.7096 240.947 59.1509C240.906 58.5922 240.712 58.0555 240.387 57.5999C240.061 57.1443 239.615 56.7876 239.1 56.5691L229.689 52.5864C228.946 52.2726 228.109 52.2654 227.36 52.5664L192.981 66.4771L215.968 76.2162Z" fill="#B0D9FF" stroke="#020064" stroke-width="2" stroke-linecap="round" stroke-linejoin="round"/>
<path d="M210.643 130.795L201.227 126.806C200.486 126.49 199.899 125.894 199.596 125.147L181.571 80.6082L206.54 91.1942L214.794 127.318C214.919 127.864 214.89 128.434 214.711 128.965C214.533 129.495 214.211 129.967 213.782 130.326C213.352 130.685 212.832 130.919 212.278 131.002C211.724 131.085 211.159 131.013 210.643 130.795Z" fill="#B0D9FF" stroke="#020064" stroke-width="2" stroke-linecap="round" stroke-linejoin="round"/>
<path d="M166.244 55.1414L172.118 57.6305C170.913 60.5171 168.611 62.807 165.718 63.9965C162.825 65.186 159.578 65.1777 156.691 63.9736L141.842 57.785C145.358 55.3254 149.438 53.7935 153.704 53.3313C157.97 52.8692 162.283 53.4918 166.244 55.1414Z" fill="white" stroke="#020064" stroke-width="2" stroke-linecap="round" stroke-linejoin="round"/>
</svg>
