<svg width="36" height="35" viewBox="0 0 36 35" fill="none" xmlns="http://www.w3.org/2000/svg">
<path fill-rule="evenodd" clip-rule="evenodd" d="M22.3895 4.90206C22.3895 2.47761 20.424 0.512207 17.9996 0.512207C15.5751 0.512207 13.6097 2.47761 13.6097 4.90206C13.6097 6.76835 14.7743 8.36264 16.4165 8.9978V13.0051C15.0621 13.3835 13.9053 14.2351 13.1357 15.3707L9.5202 14.1185C9.41403 11.7883 7.49131 9.93181 5.13498 9.93181C2.71052 9.93181 0.745117 11.8972 0.745117 14.3217C0.745117 16.7461 2.71052 18.7115 5.13497 18.7115C6.49506 18.7115 7.71068 18.093 8.51589 17.1219L12.1348 18.3752C12.1303 18.4699 12.128 18.565 12.128 18.6607C12.128 20.059 12.6167 21.343 13.4327 22.3514L11.1348 25.5337C10.7753 25.4386 10.3977 25.3878 10.0083 25.3878C7.58386 25.3878 5.61843 27.3533 5.61843 29.7777C5.61843 32.2022 7.58386 34.1676 10.0083 34.1676C12.4327 34.1676 14.3981 32.2022 14.3981 29.7777C14.3981 28.8996 14.1404 28.0817 13.6962 27.3957L16.0127 24.1876C16.6332 24.4107 17.3022 24.5323 17.9996 24.5323C18.6971 24.5323 19.3662 24.4107 19.9869 24.1874L22.3032 27.3953C21.8589 28.0814 21.601 28.8994 21.601 29.7777C21.601 32.2022 23.5663 34.1676 25.9908 34.1676C28.4153 34.1676 30.3807 32.2022 30.3807 29.7777C30.3807 27.3533 28.4153 25.3878 25.9908 25.3878C25.6016 25.3878 25.2242 25.4385 24.8648 25.5336L22.5668 22.351C23.3825 21.3426 23.8711 20.0587 23.8711 18.6607C23.8711 18.565 23.8688 18.4698 23.8642 18.3752L27.4832 17.1218C28.2884 18.0929 29.504 18.7115 30.8642 18.7115C33.2886 18.7115 35.254 16.7461 35.254 14.3217C35.254 11.8972 33.2886 9.93181 30.8642 9.93181C28.5078 9.93181 26.5851 11.7883 26.4789 14.1184L22.8633 15.3706C22.0938 14.2352 20.9372 13.3836 19.5832 13.0052V8.99764C21.225 8.36233 22.3895 6.76819 22.3895 4.90206Z" fill="#F9B942"/>
</svg>
