<svg width="36" height="34" viewBox="0 0 36 34" fill="none" xmlns="http://www.w3.org/2000/svg">
<path fill-rule="evenodd" clip-rule="evenodd" d="M30.5929 0.477166C28.0174 0.331396 23.8984 0.177124 18 0.177124C12.1016 0.177124 7.98265 0.331396 5.40713 0.477166C2.87223 0.62064 0.77038 2.47347 0.517546 5.07864C0.342144 6.88595 0.1875 9.4435 0.1875 12.8438C0.1875 16.2441 0.342144 18.8016 0.517546 20.6089C0.77038 23.2141 2.87222 25.067 5.40712 25.2104C7.98265 25.3562 12.1016 25.5105 18 25.5105C23.8984 25.5105 28.0174 25.3562 30.5929 25.2104C33.1278 25.067 35.2296 23.2141 35.4825 20.6089C35.6579 18.8016 35.8125 16.2441 35.8125 12.8438C35.8125 9.4435 35.6579 6.88595 35.4825 5.07866C35.2296 2.47349 33.1278 0.62064 30.5929 0.477166ZM8.2222 28.0286C9.53455 27.9648 12.3081 27.8855 18 27.8855C23.6919 27.8855 26.4655 27.9648 27.7778 28.0286C28.74 28.0754 29.7167 28.6868 29.8309 29.8576C29.858 30.1354 29.875 30.4648 29.875 30.8542C29.875 31.2436 29.858 31.573 29.8309 31.8508C29.7167 33.0216 28.74 33.633 27.7778 33.6798C26.4655 33.7436 23.6919 33.823 18 33.823C12.3081 33.823 9.53455 33.7436 8.2222 33.6798C7.26001 33.633 6.28328 33.0216 6.16911 31.8508C6.14202 31.573 6.125 31.2436 6.125 30.8542C6.125 30.4648 6.14202 30.1354 6.16911 29.8576C6.28328 28.6868 7.26001 28.0754 8.2222 28.0286Z" fill="#F96342"/>
</svg>
