<svg width="38" height="26" viewBox="0 0 38 26" fill="none" xmlns="http://www.w3.org/2000/svg">
<path fill-rule="evenodd" clip-rule="evenodd" d="M11.0572 6.6884C11.7388 2.93788 15.0146 0.0944824 18.9531 0.0944824C22.9356 0.0944824 26.2406 3.00185 26.8709 6.81459C26.9422 7.24558 26.9792 7.68812 26.9792 8.13937C26.9792 9.97532 26.3657 11.6672 25.3333 13.0207C24.8083 13.7091 24.1749 14.31 23.4587 14.7978C24.4422 15.2398 25.3472 15.8223 26.1465 16.5194C27.9052 18.053 29.153 20.1416 29.6033 22.5102C29.6662 22.8414 29.6726 23.1682 29.6238 23.4789C29.5642 23.8589 29.4218 24.2146 29.1994 24.5245C28.7946 25.0882 28.1623 25.4474 27.4173 25.5431C25.9587 25.7303 23.4091 25.9052 18.9555 25.9052C14.5018 25.9052 11.9522 25.7303 10.4936 25.5431C9.74874 25.4474 9.11636 25.0882 8.71166 24.5245C8.48928 24.2148 8.34694 23.8593 8.28717 23.4795C8.23832 23.1687 8.24465 22.8416 8.30767 22.5102C8.63503 20.7881 9.38394 19.214 10.4443 17.8937C10.8769 17.3549 11.3614 16.8584 11.8903 16.4113C12.6576 15.7626 13.5182 15.2179 14.4493 14.7991C13.7867 14.348 13.1948 13.8001 12.694 13.1756C12.6644 13.1387 12.6352 13.1017 12.6063 13.0642C11.5537 11.7036 10.927 9.99511 10.927 8.13937C10.927 7.64402 10.9717 7.15905 11.0572 6.6884ZM8.55752 8.13937C8.55752 7.25658 8.66701 6.39944 8.87316 5.58086C8.43101 5.46876 7.96797 5.40923 7.49102 5.40923C4.38719 5.40923 1.87103 7.93132 1.87103 11.0424C1.87103 12.9824 2.84938 14.6927 4.33743 15.7056C2.13469 16.6963 0.49537 18.6934 0.0369889 21.105C-0.0610552 21.6208 0.0366823 22.1212 0.31981 22.5155C0.603237 22.9102 1.046 23.1617 1.56762 23.2287C2.40086 23.3356 3.74263 23.4369 5.90206 23.4705C5.86455 23.0011 5.89226 22.5279 5.98012 22.0657C6.56923 18.9663 8.26373 16.2738 10.6269 14.3785C9.32876 12.6406 8.55752 10.4807 8.55752 8.13937ZM30.5054 5.40923C29.998 5.40923 29.5061 5.47668 29.0385 5.60311C29.2411 6.41496 29.3486 7.26458 29.3486 8.13937C29.3486 10.4796 28.5781 12.6386 27.2811 14.3761C29.6458 16.2715 31.3414 18.9649 31.9308 22.0657C32.0187 22.5284 32.0464 23.002 32.0087 23.4719C34.2204 23.4397 35.5876 23.3371 36.4323 23.2287C36.9539 23.1617 37.3966 22.9102 37.6801 22.5155C37.9632 22.1212 38.061 21.6208 37.9629 21.105C37.5043 18.6926 35.8642 16.6951 33.6604 15.7048C35.1477 14.6917 36.1255 12.9818 36.1255 11.0424C36.1255 7.93132 33.6093 5.40923 30.5054 5.40923Z" fill="#42A4F9"/>
</svg>
