<svg width="36" height="36" viewBox="0 0 36 36" fill="none" xmlns="http://www.w3.org/2000/svg">
<path fill-rule="evenodd" clip-rule="evenodd" d="M12.0616 2.10651C12.0948 3.19906 11.2361 4.1117 10.1435 4.14494L5.14751 4.29691C4.68707 4.33381 4.33408 4.68682 4.29713 5.14711L4.14493 10.1436C4.11166 11.2362 3.19898 12.0949 2.10643 12.0616C1.01387 12.0283 0.155161 11.1157 0.188435 10.0231L0.341726 4.99063C0.342304 4.97171 0.343151 4.95281 0.344267 4.93392C0.491058 2.45436 2.45521 0.490596 4.93464 0.344035C4.9535 0.342919 4.97237 0.342072 4.99126 0.341502L10.0232 0.188433C11.1157 0.155199 12.0284 1.01395 12.0616 2.10651ZM25.8565 4.14494C24.7639 4.1117 23.9052 3.19906 23.9384 2.10651C23.9717 1.01395 24.8843 0.155199 25.9768 0.188433L31.0087 0.341502C31.0277 0.342072 31.0465 0.342919 31.0654 0.344035C33.5448 0.490596 35.509 2.45436 35.6557 4.93392C35.6569 4.95281 35.6577 4.97171 35.6583 4.99063L35.8116 10.0231C35.8449 11.1157 34.9862 12.0283 33.8936 12.0616C32.8011 12.0949 31.8884 11.2362 31.8551 10.1436L31.7029 5.14711C31.666 4.68682 31.313 4.33381 30.8525 4.29691L25.8565 4.14494ZM35.8116 25.9769C35.8449 24.8844 34.9862 23.9717 33.8936 23.9384C32.8011 23.9051 31.8884 24.7638 31.8551 25.8564L31.7029 30.8529C31.666 31.3132 31.313 31.6662 30.8525 31.7031L25.8565 31.8551C24.7639 31.8884 23.9052 32.801 23.9384 33.8935C23.9717 34.9861 24.8843 35.8448 25.9768 35.8116L31.0087 35.6585C31.0277 35.658 31.0465 35.6571 31.0654 35.656C33.5448 35.5094 35.509 33.5456 35.6557 31.0661L35.6569 31.0468L35.6576 31.0293L35.6583 31.0094L35.8116 25.9769ZM0.188435 25.9769C0.155161 24.8844 1.01387 23.9717 2.10643 23.9384C3.19898 23.9051 4.11166 24.7638 4.14493 25.8564L4.29713 30.8529C4.33408 31.3132 4.68707 31.6662 5.14751 31.7031L10.1435 31.8551C11.2361 31.8884 12.0948 32.801 12.0616 33.8935C12.0284 34.9861 11.1157 35.8448 10.0232 35.8116L4.99126 35.6585C4.97237 35.658 4.9535 35.6571 4.93464 35.656C2.45522 35.5094 0.491058 33.5456 0.344267 31.0661C0.343151 31.0472 0.342304 31.0283 0.341726 31.0094L0.188435 25.9769ZM18.0006 7.3125C11.5908 7.3125 6.08432 11.1602 3.90464 16.6303C3.5541 17.51 3.55414 18.4912 3.90476 19.3708C6.08472 24.8403 11.5909 28.6876 18.0002 28.6876C24.41 28.6876 29.9165 24.8398 32.0961 19.3698C32.4466 18.4901 32.4466 17.5088 32.096 16.6292C29.9161 11.1598 24.4099 7.3125 18.0006 7.3125ZM18 23.5417C21.0606 23.5417 23.5417 21.0606 23.5417 18C23.5417 14.9394 21.0606 12.4583 18 12.4583C14.9394 12.4583 12.4583 14.9394 12.4583 18C12.4583 21.0606 14.9394 23.5417 18 23.5417Z" fill="#F9427C"/>
</svg>
