<svg width="38" height="38" viewBox="0 0 38 38" fill="none" xmlns="http://www.w3.org/2000/svg">
<path fill-rule="evenodd" clip-rule="evenodd" d="M19 38C8.50659 38 0 29.4934 0 19C0 8.50659 8.50659 0 19 0C29.4934 0 38 8.50659 38 19C38 29.4934 29.4934 38 19 38ZM17.2535 8.25926C18.0333 6.92063 19.9671 6.92062 20.7468 8.25926L23.1729 12.4246C23.3442 12.7189 23.6314 12.9274 23.9642 12.9996L28.6754 14.0197C30.1894 14.3476 30.7871 16.1868 29.7548 17.342L26.5431 20.9365C26.3162 21.1904 26.2065 21.528 26.2408 21.8667L26.7264 26.6626C26.8824 28.2039 25.318 29.3405 23.9003 28.7159L19.4892 26.7721C19.1776 26.6348 18.8227 26.6348 18.5111 26.7721L14.1 28.7159C12.6824 29.3405 11.1179 28.2039 11.274 26.6626L11.7596 21.8667C11.7938 21.528 11.6841 21.1904 11.4573 20.9365L8.24552 17.342C7.21331 16.1868 7.81086 14.3476 9.32496 14.0197L14.0362 12.9996C14.3689 12.9274 14.6561 12.7189 14.8274 12.4246L17.2535 8.25926Z" fill="#F96342"/>
</svg>
