<svg width="36" height="36" viewBox="0 0 36 36" fill="none" xmlns="http://www.w3.org/2000/svg">
<path fill-rule="evenodd" clip-rule="evenodd" d="M5.30856 35.5649C7.92584 35.7775 12.0789 36 18 36C23.9211 36 28.0742 35.7775 30.6914 35.5649C33.3217 35.3512 35.3512 33.3218 35.5649 30.6914C35.7775 28.0742 36 23.9211 36 18C36 12.0789 35.7775 7.92584 35.5649 5.30856C35.3512 2.67828 33.3217 0.648816 30.6914 0.43512L30.5676 0.425144C30.4627 0.416768 30.3555 0.408376 30.2458 0.4C27.6122 0.19868 23.5957 0 18 0C16.5197 0 15.1499 0.013904 13.887 0.03808C10.763 0.097896 8.29288 0.220584 6.42185 0.3512C6.02378 0.378992 5.65283 0.407136 5.30847 0.435112C2.67819 0.648824 0.648728 2.67828 0.435016 5.30856C0.351024 6.34236 0.265504 7.61568 0.192768 9.14288L0.192144 9.15792C0.081088 11.495 0 14.4252 0 18C0 23.9211 0.222464 28.0742 0.435112 30.6914C0.648816 33.3218 2.67828 35.3512 5.30856 35.5649ZM3.3485 10.4C3.26118 12.4638 3.2 14.9855 3.2 18C3.2 24.3885 3.47478 28.5637 3.69078 30.8587C3.76488 31.6462 4.35382 32.2351 5.14125 32.3092C7.43632 32.5252 11.6115 32.8 18 32.8C24.3885 32.8 28.5637 32.5252 30.8587 32.3092C31.6462 32.2351 32.2351 31.6462 32.3092 30.8588C32.5252 28.5637 32.8 24.3885 32.8 18C32.8 14.9855 32.7388 12.4638 32.6515 10.4H3.3485ZM5.4 5.6C5.4 4.8268 6.0268 4.2 6.8 4.2H8.4C9.1732 4.2 9.8 4.8268 9.8 5.6C9.8 6.3732 9.1732 7 8.4 7H6.8C6.0268 7 5.4 6.3732 5.4 5.6ZM13.2 4.2C12.4268 4.2 11.8 4.8268 11.8 5.6C11.8 6.3732 12.4268 7 13.2 7H14.8C15.5732 7 16.2 6.3732 16.2 5.6C16.2 4.8268 15.5732 4.2 14.8 4.2H13.2ZM9.35824 19.9562C8.47456 19.9562 7.75824 20.6726 7.75824 21.5562C7.75824 22.4399 8.47456 23.1562 9.35824 23.1562H26.6418C27.5254 23.1562 28.2418 22.4399 28.2418 21.5562C28.2418 20.6726 27.5254 19.9562 26.6418 19.9562H9.35824ZM7.75824 15.4953C7.75824 14.6117 8.47456 13.8953 9.35824 13.8953H26.6418C27.5254 13.8953 28.2418 14.6117 28.2418 15.4953C28.2418 16.379 27.5254 17.0953 26.6418 17.0953H9.35824C8.47456 17.0953 7.75824 16.379 7.75824 15.4953ZM9.35824 26.0187C8.47456 26.0187 7.75824 26.7351 7.75824 27.6187C7.75824 28.5024 8.47456 29.2187 9.35824 29.2187H19.2346C20.1182 29.2187 20.8346 28.5024 20.8346 27.6187C20.8346 26.7351 20.1182 26.0187 19.2346 26.0187H9.35824Z" fill="#8542F9"/>
</svg>
