<svg width="38" height="38" viewBox="0 0 38 38" fill="none" xmlns="http://www.w3.org/2000/svg">
<path fill-rule="evenodd" clip-rule="evenodd" d="M0 18.9999C0 8.50655 8.50655 0 18.9999 0C29.4933 0 37.9998 8.50655 37.9998 18.9999C37.9998 29.4933 29.4933 37.9998 18.9999 37.9998C8.50655 37.9998 0 29.4933 0 18.9999ZM15.8784 11.8342C15.8042 10.7861 16.2742 9.75521 17.2932 9.49907C17.7567 9.38256 18.3255 9.29783 18.9999 9.29783C19.6743 9.29783 20.2432 9.38256 20.7066 9.49907C21.7256 9.75521 22.1956 10.7861 22.1215 11.8342C21.9672 14.0139 21.6728 17.7999 21.3545 19.9219C21.2497 20.6211 20.8288 21.2225 20.1317 21.3401C19.8336 21.3903 19.4604 21.4254 18.9999 21.4254C18.5394 21.4254 18.1663 21.3903 17.8682 21.3401C17.1711 21.2225 16.7502 20.6211 16.6453 19.9219C16.327 17.7999 16.0326 14.0139 15.8784 11.8342ZM21.8297 26.6807C21.8297 28.2436 20.5628 29.5105 18.9999 29.5105C17.4371 29.5105 16.1701 28.2436 16.1701 26.6807C16.1701 25.1179 17.4371 23.851 18.9999 23.851C20.5628 23.851 21.8297 25.1179 21.8297 26.6807Z" fill="#F9B942"/>
</svg>
