<svg width="38" height="35" viewBox="0 0 38 35" fill="none" xmlns="http://www.w3.org/2000/svg">
<path fill-rule="evenodd" clip-rule="evenodd" d="M4.86743 0.35447C7.23991 0.178851 11.2517 0 17.7604 0C24.2692 0 28.2811 0.178851 30.6535 0.35447C33.0391 0.53114 34.9379 2.26189 35.1951 4.69633C35.3692 6.34452 35.521 8.71628 35.521 11.9779C35.521 14.6052 35.4225 16.655 35.2932 18.2144C33.7814 17.9959 32.2879 18.5972 31.3 19.5116C31.1995 19.6048 31.0919 19.7047 30.9773 19.812C30.8628 19.7047 30.7553 19.6048 30.6548 19.5116C29.1695 18.1369 26.5419 17.47 24.4268 19.232C24.121 19.4868 23.7913 19.7858 23.4403 20.1368C23.0892 20.4879 22.7901 20.8176 22.5354 21.1234C21.796 22.011 21.4843 22.9889 21.4732 23.9348C20.3367 23.9484 19.1015 23.956 17.7604 23.956C11.2517 23.956 7.23991 23.7772 4.86751 23.6015C2.48186 23.4249 0.583002 21.6941 0.325874 19.2596C0.151708 17.6115 0 15.2396 0 11.9779C0 8.71628 0.151708 6.34452 0.325874 4.69633C0.583002 2.26189 2.48178 0.53114 4.86743 0.35447ZM8.6737 9.08674C10.2705 9.08674 11.565 10.3812 11.565 11.978C11.565 13.5748 10.2705 14.8693 8.6737 14.8693C7.07689 14.8693 5.78244 13.5748 5.78244 11.978C5.78244 10.3812 7.07689 9.08674 8.6737 9.08674ZM20.6517 11.978C20.6517 10.3812 19.3573 9.08674 17.7604 9.08674C16.1636 9.08674 14.8693 10.3812 14.8693 11.978C14.8693 13.5748 16.1637 14.8693 17.7604 14.8693C19.3572 14.8693 20.6517 13.5748 20.6517 11.978ZM26.8472 9.08674C28.444 9.08674 29.7384 10.3812 29.7384 11.978C29.7384 13.5748 28.444 14.8693 26.8472 14.8693C25.2504 14.8693 23.956 13.5748 23.956 11.978C23.956 10.3812 25.2505 9.08674 26.8472 9.08674ZM26.0131 21.1352C26.9401 20.3631 28.1599 20.5782 28.9715 21.3295C29.4547 21.7768 30.1105 22.3966 30.9776 23.2399C31.8446 22.3966 32.5005 21.7768 32.9836 21.3295C33.7952 20.5782 35.0151 20.3631 35.942 21.1352C36.1878 21.34 36.4622 21.5882 36.7623 21.8883C37.0625 22.1884 37.3107 22.4628 37.5154 22.7087C38.2875 23.6355 38.0725 24.8554 37.3212 25.6671C36.874 26.1503 36.2541 26.806 35.4108 27.6731C36.2541 28.5401 36.874 29.1959 37.3212 29.6792C38.0725 30.4908 38.2875 31.7107 37.5154 32.6375C37.3107 32.8833 37.0625 33.1577 36.7623 33.4578C36.4622 33.7579 36.1878 34.0061 35.942 34.2109C35.0151 34.9831 33.7952 34.768 32.9836 34.0167C32.5005 33.5694 31.8446 32.9495 30.9776 32.1063C30.1105 32.9495 29.4547 33.5694 28.9715 34.0167C28.1599 34.768 26.9401 34.9831 26.0131 34.2109C25.7673 34.0061 25.493 33.7579 25.1929 33.4578C24.8927 33.1577 24.6444 32.8833 24.4397 32.6375C23.6676 31.7107 23.8827 30.4908 24.6339 29.6791C25.0811 29.1959 25.7011 28.5401 26.5444 27.6731C25.7011 26.806 25.0811 26.1503 24.6339 25.6671C23.8827 24.8554 23.6676 23.6355 24.4397 22.7087C24.6444 22.4628 24.8927 22.1884 25.1929 21.8883C25.493 21.5882 25.7673 21.34 26.0131 21.1352Z" fill="#F94242"/>
</svg>
