<svg width="38" height="26" viewBox="0 0 38 26" fill="none" xmlns="http://www.w3.org/2000/svg">
<path fill-rule="evenodd" clip-rule="evenodd" d="M11.0572 6.59392C11.7388 2.8434 15.0146 0 18.9531 0C22.9356 0 26.2406 2.90736 26.8709 6.72011C26.9422 7.15109 26.9792 7.59364 26.9792 8.04489C26.9792 9.88084 26.3657 11.5727 25.3333 12.9262C24.8083 13.6147 24.1749 14.2155 23.4587 14.7034C24.4422 15.1453 25.3472 15.7278 26.1465 16.4249C27.9052 17.9585 29.153 20.0471 29.6033 22.4157C29.6662 22.7469 29.6726 23.0737 29.6238 23.3844C29.5642 23.7644 29.4218 24.1202 29.1994 24.43C28.7946 24.9938 28.1623 25.3529 27.4173 25.4486C25.9587 25.6358 23.4091 25.8108 18.9555 25.8108C14.5018 25.8108 11.9522 25.6358 10.4936 25.4486C9.74874 25.3529 9.11636 24.9938 8.71166 24.43C8.48928 24.1203 8.34694 23.7649 8.28717 23.385C8.23832 23.0742 8.24465 22.7472 8.30767 22.4157C8.63503 20.6936 9.38394 19.1195 10.4443 17.7992C10.8769 17.2604 11.3614 16.7639 11.8903 16.3169C12.6576 15.6681 13.5182 15.1234 14.4493 14.7046C13.7867 14.2535 13.1948 13.7056 12.694 13.0812C12.6644 13.0443 12.6352 13.0072 12.6063 12.9698C11.5537 11.6091 10.927 9.90063 10.927 8.04489C10.927 7.54954 10.9717 7.06456 11.0572 6.59392ZM8.55752 8.04489C8.55752 7.1621 8.66701 6.30496 8.87316 5.48638C8.43101 5.37428 7.96797 5.31474 7.49102 5.31474C4.38719 5.31474 1.87103 7.83683 1.87103 10.9479C1.87103 12.8879 2.84938 14.5982 4.33743 15.6112C2.13469 16.6019 0.49537 18.5989 0.0369889 21.0105C-0.0610552 21.5263 0.0366823 22.0267 0.31981 22.421C0.603237 22.8157 1.046 23.0672 1.56762 23.1342C2.40086 23.2412 3.74263 23.3424 5.90206 23.3761C5.86455 22.9066 5.89226 22.4334 5.98012 21.9712C6.56923 18.8718 8.26373 16.1793 10.6269 14.284C9.32876 12.5461 8.55752 10.3862 8.55752 8.04489ZM30.5054 5.31474C29.998 5.31474 29.5061 5.38219 29.0385 5.50862C29.2411 6.32048 29.3486 7.17009 29.3486 8.04489C29.3486 10.3851 28.5781 12.5441 27.2811 14.2816C29.6458 16.177 31.3414 18.8705 31.9308 21.9712C32.0187 22.4339 32.0464 22.9075 32.0087 23.3774C34.2204 23.3452 35.5876 23.2427 36.4323 23.1342C36.9539 23.0672 37.3966 22.8157 37.6801 22.421C37.9632 22.0267 38.061 21.5263 37.9629 21.0105C37.5043 18.5981 35.8642 16.6006 33.6604 15.6103C35.1477 14.5972 36.1255 12.8874 36.1255 10.9479C36.1255 7.83683 33.6093 5.31474 30.5054 5.31474Z" fill="#42A4F9"/>
</svg>
