<svg width="36" height="36" viewBox="0 0 36 36" fill="none" xmlns="http://www.w3.org/2000/svg">
<path fill-rule="evenodd" clip-rule="evenodd" d="M11.9991 1.93921C12.0326 3.04326 11.1649 3.96551 10.0608 3.99909L5.01222 4.15266C4.54694 4.18996 4.19023 4.54668 4.15289 5.01181L3.99909 10.0609C3.96546 11.165 3.04318 12.0327 1.93913 11.9991C0.835073 11.9654 -0.0326789 11.0432 0.000945067 9.93912L0.155849 4.85369C0.156433 4.83458 0.157289 4.81547 0.158417 4.79638C0.306753 2.29072 2.29158 0.306287 4.79711 0.158183C4.81617 0.157055 4.83524 0.156199 4.85432 0.155623L9.9392 0.000942814C11.0433 -0.0326412 11.9655 0.835151 11.9991 1.93921ZM25.9392 3.99909C24.8351 3.96551 23.9674 3.04326 24.001 1.93921C24.0346 0.835151 24.9568 -0.0326412 26.0608 0.000942814L31.1457 0.155623C31.1648 0.156199 31.1838 0.157055 31.203 0.158183C33.7085 0.306287 35.6933 2.29072 35.8416 4.79638C35.8427 4.81547 35.8436 4.83458 35.8442 4.85369L35.9991 9.93912C36.0327 11.0432 35.165 11.9654 34.0609 11.9991C32.9569 12.0327 32.0346 11.165 32.001 10.0609L31.8471 5.01181C31.8098 4.54668 31.4531 4.18996 30.9878 4.15266L25.9392 3.99909ZM35.9991 26.0609C36.0327 24.9569 35.165 24.0346 34.0609 24.001C32.9569 23.9673 32.0346 24.835 32.001 25.9391L31.8471 30.9882C31.8098 31.4534 31.4531 31.8101 30.9878 31.8474L25.9392 32.001C24.8351 32.0346 23.9674 32.9568 24.001 34.0608C24.0346 35.1649 24.9568 36.0326 26.0608 35.9991L31.1457 35.8444C31.1648 35.8438 31.1838 35.843 31.203 35.8418C33.7085 35.6938 35.6933 33.7093 35.8416 31.2037L35.8427 31.1842L35.8435 31.1664L35.8442 31.1463L35.9991 26.0609ZM0.000945067 26.0609C-0.0326789 24.9569 0.835073 24.0346 1.93913 24.001C3.04318 23.9673 3.96546 24.835 3.99909 25.9391L4.15289 30.9882C4.19023 31.4534 4.54694 31.8101 5.01222 31.8474L10.0608 32.001C11.1649 32.0346 12.0326 32.9568 11.9991 34.0608C11.9655 35.1649 11.0433 36.0326 9.9392 35.9991L4.85433 35.8444C4.83524 35.8438 4.81617 35.843 4.79711 35.8418C2.29159 35.6938 0.306753 33.7093 0.158417 31.2037C0.157289 31.1846 0.156433 31.1654 0.155849 31.1463L0.000945067 26.0609ZM18.0006 7.2C11.5234 7.2 5.95889 11.0882 3.75627 16.6158C3.40204 17.5048 3.40208 18.4964 3.75638 19.3853C5.9593 24.9123 11.5234 28.8001 18.0002 28.8001C24.4774 28.8001 30.0419 24.9118 32.2445 19.3842C32.5987 18.4953 32.5987 17.5037 32.2444 16.6148C30.0415 11.0878 24.4774 7.2 18.0006 7.2ZM18 23.6C21.0928 23.6 23.6 21.0928 23.6 18C23.6 14.9072 21.0928 12.4 18 12.4C14.9072 12.4 12.4 14.9072 12.4 18C12.4 21.0928 14.9072 23.6 18 23.6Z" fill="#F9427C"/>
</svg>
