<svg width="20" height="20" viewBox="0 0 20 20" fill="none" xmlns="http://www.w3.org/2000/svg">
<path d="M16.6667 9.99981L17.2558 9.41064L17.845 9.99981L17.2558 10.589L16.6667 9.99981ZM4.16667 10.8331C3.94565 10.8331 3.73369 10.7453 3.57741 10.5891C3.42113 10.4328 3.33333 10.2208 3.33333 9.99981C3.33333 9.7788 3.42113 9.56684 3.57741 9.41056C3.73369 9.25427 3.94565 9.16648 4.16667 9.16648L4.16667 10.8331ZM12.2558 4.41064L17.2558 9.41064L16.0775 10.589L11.0775 5.58898L12.2558 4.41064ZM17.2558 10.589L12.2558 15.589L11.0775 14.4106L16.0775 9.41064L17.2558 10.589ZM16.6667 10.8331L4.16667 10.8331L4.16667 9.16648L16.6667 9.16648L16.6667 10.8331Z" fill="white"/>
</svg>
