<svg width="186" height="30" viewBox="0 0 186 30" fill="none" xmlns="http://www.w3.org/2000/svg">
<path d="M82.105 0.000976558C82.1441 0.105347 82.1584 0.217435 82.1467 0.328307V22.1846C82.1467 22.7001 82.1503 22.6274 81.695 22.6274C80.289 22.6295 78.883 22.6295 77.477 22.6274C77.1859 22.6274 77.1406 22.6651 77.1236 22.3016C77.0897 21.6217 77.0388 20.9423 76.9935 20.2645C76.9842 20.1098 76.9631 19.9614 76.942 19.7588C76.8777 19.8722 76.8392 19.9407 76.8006 20.0103C76.3891 20.7975 75.7916 21.4716 75.0602 21.9739C74.3288 22.4762 73.4857 22.7914 72.6047 22.8919C71.3704 23.0697 70.111 22.9066 68.9623 22.4202C68.0038 22.0046 67.1806 21.3283 66.5858 20.4681C65.9043 19.4817 65.4535 18.3541 65.2669 17.169C65.1608 16.5486 65.0971 15.9217 65.0761 15.2927C65.0141 14.0634 65.124 12.8315 65.4027 11.6328C65.6522 10.5033 66.1593 9.44695 66.8842 8.54659C67.7589 7.47164 68.9935 6.75172 70.3584 6.52076C71.2605 6.34117 72.1894 6.34432 73.0903 6.53004C74.356 6.80563 75.4676 7.55824 76.1952 8.63216C76.2595 8.72289 76.3196 8.81567 76.3803 8.91052C76.441 9.00537 76.4878 9.08682 76.5521 9.19249C76.5934 9.11894 76.6075 9.03313 76.5917 8.95021C76.5938 7.45464 76.5938 5.95975 76.5917 4.46554C76.5917 3.08165 76.5917 1.69708 76.5917 0.311811C76.5917 0.208715 76.5953 0.10562 76.5995 0.00252411L82.105 0.000976558ZM76.5923 14.7952C76.5923 14.4978 76.6 14.2993 76.5923 14.0983C76.5818 13.423 76.4421 12.7559 76.1808 12.1333C75.9196 11.4729 75.412 10.9404 74.7657 10.6487C74.3607 10.4847 73.9245 10.4129 73.4884 10.4384C73.003 10.4303 72.5254 10.562 72.1125 10.8179C71.6995 11.0737 71.3685 11.443 71.1587 11.8817C70.8408 12.5379 70.6705 13.256 70.6598 13.9854C70.6182 14.5981 70.6315 15.2133 70.6994 15.8236C70.7492 16.3327 70.876 16.8312 71.0754 17.302C71.2192 17.6566 71.4397 17.9748 71.7209 18.2337C72.0022 18.4927 72.3372 18.6859 72.7019 18.7995C73.1068 18.9189 73.5314 18.9562 73.9509 18.9093C74.284 18.8869 74.6093 18.7978 74.9075 18.6473C75.2056 18.4968 75.4707 18.2879 75.6869 18.033C76.0387 17.6085 76.2872 17.1078 76.4127 16.5705C76.5573 15.9905 76.6178 15.3926 76.5923 14.7952Z" fill="white"/>
<path d="M36.9471 29.2794C36.9471 21.9049 36.9471 14.5307 36.9471 7.15656C36.9471 7.06017 36.9471 6.96532 36.9507 6.86892C36.9498 6.84797 36.9533 6.82706 36.961 6.80756C36.9687 6.78806 36.9805 6.77043 36.9955 6.75582C37.0105 6.74121 37.0285 6.72995 37.0481 6.72279C37.0678 6.71563 37.0888 6.71273 37.1097 6.71428C37.1704 6.71428 37.2305 6.71067 37.2892 6.71067H41.4656C41.8225 6.71067 41.8148 6.71067 41.8323 7.07151C41.8755 7.99937 41.9249 8.93239 41.9738 9.88499C42.0551 9.83344 42.0664 9.76025 42.0967 9.69736C42.3951 9.0536 42.8088 8.47021 43.3174 7.97617C44.1051 7.19271 45.1168 6.67455 46.2119 6.49366C47.4703 6.27631 48.764 6.40584 49.9546 6.86841C50.8646 7.22544 51.6616 7.82184 52.2617 8.59475C53.0117 9.56945 53.5176 10.7101 53.737 11.9211C54.0597 13.634 54.0739 15.391 53.7786 17.1089C53.6062 18.2049 53.2114 19.2538 52.6187 20.191C52.1548 20.9391 51.5267 21.5713 50.7822 22.0395C50.0377 22.5076 49.1965 22.7994 48.3225 22.8926C47.4429 23.0232 46.5459 22.9724 45.6867 22.7431C44.4185 22.3905 43.3387 21.5538 42.679 20.4126C42.6365 20.3188 42.574 20.2354 42.4959 20.1683V29.2794H36.9471ZM48.396 14.68C48.396 14.4511 48.4094 14.2197 48.396 13.9928C48.373 13.3849 48.2544 12.7843 48.0447 12.2134C47.9266 11.8699 47.7392 11.5543 47.4942 11.2865C47.2491 11.0187 46.9516 10.8043 46.6203 10.6567C46.0719 10.4397 45.4747 10.3774 44.8935 10.4768C44.6773 10.5045 44.4668 10.5664 44.27 10.6603C43.6615 10.9435 43.1813 11.4456 42.9249 12.067C42.6694 12.6609 42.5297 13.2984 42.5134 13.9449C42.4734 14.5658 42.4855 15.189 42.5494 15.8078C42.6062 16.4372 42.7914 17.0481 43.0936 17.6027C43.2629 17.9211 43.4996 18.1986 43.787 18.4159C44.0744 18.6331 44.4057 18.7849 44.7577 18.8605C45.082 18.9267 45.4144 18.9441 45.7438 18.9121C46.3642 18.8777 46.9502 18.6155 47.3899 18.1754C47.7668 17.7811 48.0356 17.2958 48.1702 16.7666C48.3555 16.0875 48.4317 15.3831 48.396 14.68Z" fill="white"/>
<path d="M165.11 0.00103039C165.114 0.118559 165.122 0.237634 165.122 0.355163C165.123 4.56214 165.123 8.76775 165.122 12.972C165.11 13.0708 165.117 13.1708 165.141 13.2673C165.22 13.2673 165.256 13.205 165.295 13.1612C165.672 12.7581 166.048 12.3536 166.421 11.9477C166.801 11.5353 167.177 11.1261 167.556 10.7132L169.666 8.42599C170.026 8.03783 170.386 7.65277 170.746 7.26358C170.873 7.1275 170.999 6.9909 171.122 6.8512C171.16 6.80402 171.208 6.76661 171.263 6.74218C171.318 6.71776 171.378 6.70706 171.438 6.71099C171.475 6.7146 171.513 6.71099 171.551 6.71099C173.355 6.71099 175.159 6.71099 176.964 6.71099C177.067 6.71099 177.209 6.66357 177.255 6.76615C177.301 6.86873 177.164 6.93677 177.096 7.00842C176.03 8.12357 174.964 9.23872 173.895 10.3539C173.289 10.99 172.683 11.628 172.078 12.2678C171.904 12.4513 171.73 12.6354 171.556 12.8204C171.421 12.9642 171.421 12.9699 171.532 13.1421C171.887 13.6919 172.243 14.2404 172.601 14.7875C174.114 17.1123 175.629 19.4366 177.143 21.7603C177.289 21.9835 177.438 22.2073 177.579 22.4346C177.666 22.5727 177.642 22.6088 177.472 22.6181C177.421 22.6217 177.369 22.6181 177.318 22.6181H171.903C171.872 22.6162 171.842 22.6162 171.812 22.6181C171.746 22.628 171.678 22.6161 171.619 22.584C171.56 22.5519 171.513 22.5014 171.485 22.4403C171.228 21.9975 170.958 21.5639 170.694 21.1206L168.54 17.5252C168.311 17.1427 168.082 16.7602 167.852 16.3777C167.837 16.3514 167.824 16.3262 167.809 16.2999C167.73 16.1824 167.701 16.1788 167.603 16.2679C167.57 16.2982 167.54 16.3304 167.511 16.3643C167.017 16.902 166.526 17.4437 166.033 17.9814C165.801 18.235 165.57 18.4886 165.332 18.735C165.262 18.8045 165.206 18.8881 165.17 18.9804C165.133 19.0726 165.117 19.1715 165.121 19.2706C165.132 20.2778 165.126 21.2851 165.124 22.2923C165.124 22.616 165.124 22.6181 164.803 22.6181H159.887C159.623 22.6145 159.609 22.6031 159.606 22.3397V0.332998C159.606 0.22114 159.606 0.111343 159.609 0L165.11 0.00103039Z" fill="#E40E53"/>
<path d="M0 5.33307C0.082819 5.3249 0.166205 5.34139 0.239709 5.3805C1.30897 5.84993 2.3796 6.31884 3.4516 6.78724C4.76262 7.36286 6.07313 7.93848 7.38313 8.5141C8.6602 9.07254 9.93745 9.63098 11.2149 10.1894C12.6773 10.8291 14.1377 11.475 15.6016 12.1091C15.6788 12.1313 15.7458 12.1797 15.7913 12.246C15.8368 12.3123 15.858 12.3923 15.8511 12.4725C15.8436 13.8715 15.8436 15.27 15.8511 16.668C15.8608 16.7443 15.8433 16.8216 15.8019 16.8863C15.7604 16.9511 15.6975 16.9991 15.6243 17.0221C14.1526 17.6582 12.6845 18.3041 11.2149 18.9474C9.92442 19.5134 8.63466 20.0796 7.34558 20.6459C5.89635 21.2803 4.44781 21.9145 2.99996 22.5486C2.1272 22.9311 1.25564 23.3135 0.385283 23.696C0.268438 23.7651 0.136928 23.8053 0.00154332 23.8136V18.7052C0.795257 18.4268 1.58691 18.1469 2.38011 17.8701C4.69627 17.0635 7.01259 16.257 9.32909 15.4504C10.0866 15.1872 10.8442 14.922 11.6017 14.655C11.6717 14.6303 11.7606 14.6246 11.8172 14.5262C11.632 14.4638 11.4623 14.4071 11.2941 14.3483C8.58665 13.4112 5.87921 12.4733 3.17177 11.5348C2.11554 11.1695 1.0588 10.8047 0.00154332 10.4405L0 5.33307Z" fill="#E40E53"/>
<path d="M153.699 0.000976558C153.699 0.133454 153.702 0.267995 153.702 0.400473V16.9473C153.695 17.2347 153.709 17.5222 153.744 17.8076C153.769 17.9915 153.813 18.1723 153.874 18.3473C153.929 18.5153 154.029 18.6651 154.163 18.7805C154.297 18.8959 154.459 18.9727 154.633 19.0025C155.078 19.0856 155.534 19.0786 155.976 18.9819C156.182 18.9443 156.384 18.8891 156.588 18.8381C156.793 18.7871 156.825 18.8118 156.806 19.0046C156.745 19.5781 156.683 20.1519 156.62 20.7258C156.581 21.1082 156.53 21.4907 156.503 21.8732C156.504 21.9585 156.479 22.0421 156.433 22.1133C156.386 22.1845 156.319 22.24 156.24 22.2727C155.73 22.5128 155.192 22.686 154.638 22.7882C153.58 22.9958 152.492 22.997 151.434 22.7918C150.983 22.7094 150.548 22.5581 150.143 22.3433C149.38 21.9311 148.806 21.24 148.539 20.4139C148.335 19.8095 148.218 19.1791 148.191 18.5417C148.18 18.3504 148.184 18.1571 148.184 17.9643V0.35511C148.184 0.237581 148.189 0.120567 148.193 0.000976558H153.699Z" fill="#E40E53"/>
<path d="M18.6319 29.2793C18.6283 29.0576 18.6206 28.8344 18.6206 28.6128C18.6185 27.8743 18.6185 27.1354 18.6206 26.3962C18.6206 26.3297 18.6206 26.2638 18.6206 26.1973C18.6206 26.0895 18.672 26.0287 18.7832 26.0287C18.8346 26.0287 18.8891 26.0287 18.9421 26.0287H33.8822C33.9274 26.0287 33.9727 26.0287 34.018 26.0287C34.1723 26.04 34.2011 26.0607 34.2011 26.2179C34.2011 27.2385 34.1975 28.2607 34.1954 29.2814L18.6319 29.2793Z" fill="#E40E53"/>
<path d="M186 20.7049C185.971 20.7888 185.959 20.8778 185.966 20.9663C185.969 22.7512 185.339 24.4791 184.188 25.8417C183.867 26.2412 183.52 26.618 183.16 26.9871C182.995 27.1557 182.991 27.152 182.81 27.0098L181.201 25.7603L181.146 25.7185C180.991 25.5881 180.987 25.5726 181.127 25.4252C181.602 24.9422 182.028 24.4126 182.398 23.8442C182.587 23.5418 182.745 23.2215 182.87 22.888C182.885 22.8536 182.896 22.8181 182.904 22.7818C182.929 22.67 182.904 22.638 182.781 22.6272C182.723 22.6215 182.663 22.6272 182.602 22.6272H180.75C180.499 22.6272 180.484 22.6081 180.482 22.3601C180.482 20.7529 180.482 19.1468 180.482 17.542C180.482 17.2961 180.497 17.2806 180.754 17.2806C182.415 17.2789 184.075 17.2789 185.736 17.2806C185.826 17.2692 185.917 17.2873 185.996 17.3322L186 20.7049Z" fill="#E40E53"/>
<path d="M62.2996 0.000976558C62.3013 1.68796 62.3013 3.37426 62.2996 5.05987C62.3015 5.09713 62.3015 5.13447 62.2996 5.17173C62.2883 5.33101 62.26 5.35936 62.0939 5.3707C62.0424 5.37431 61.9879 5.37431 61.9349 5.37431H57.1156C56.7529 5.37431 56.7509 5.3707 56.7509 5.01657V0.000976558H62.2996Z" fill="white"/>
<path d="M185.999 12.0413C185.908 12.0798 185.809 12.0954 185.711 12.0867H180.776C180.731 12.0867 180.686 12.0867 180.641 12.083C180.544 12.0774 180.486 12.0315 180.486 11.9315C180.486 11.8799 180.483 11.8284 180.483 11.7768V7.02621C180.483 6.99013 180.483 6.9525 180.483 6.91641C180.492 6.74991 180.513 6.72723 180.683 6.71589C180.734 6.71228 180.789 6.71589 180.842 6.71589H185.64C185.761 6.70507 185.883 6.71928 185.997 6.75765L185.999 12.0413Z" fill="#E40E53"/>
<path d="M145.4 0.000976558V5.01453C145.4 5.34393 145.4 5.34393 145.058 5.34393H140.191C139.854 5.34393 139.854 5.34393 139.854 5.01093C139.853 3.44902 139.853 1.88832 139.854 0.328823C139.844 0.218127 139.857 0.106457 139.894 0.00149176L145.4 0.000976558Z" fill="#E40E53"/>
<path d="M127.925 22.9342C126.549 22.9621 125.173 22.8446 123.821 22.5837C122.09 22.2498 120.473 21.4789 119.123 20.3439C118.824 20.0837 118.539 19.8084 118.269 19.5192C118.133 19.3774 118.133 19.3599 118.252 19.199C118.79 18.4774 119.328 17.7557 119.867 17.034C120.175 16.6155 120.487 16.1977 120.8 15.7809C120.83 15.7391 120.861 15.6958 120.895 15.6561C120.982 15.5597 121.001 15.5577 121.085 15.6561C121.244 15.8438 121.394 16.0386 121.556 16.2232C122.392 17.2152 123.507 17.9322 124.755 18.281C125.429 18.4634 126.121 18.5764 126.818 18.6181C127.402 18.6605 127.989 18.6555 128.573 18.6031C129.16 18.5746 129.734 18.4223 130.258 18.1562C130.474 18.0542 130.664 17.9033 130.812 17.7155C130.96 17.5277 131.063 17.308 131.112 17.0737C131.165 16.8515 131.15 16.6184 131.069 16.405C130.988 16.1915 130.844 16.0075 130.657 15.8773C130.364 15.6666 130.04 15.5036 129.697 15.3943C128.87 15.1187 128.023 14.9057 127.165 14.7571C125.931 14.5305 124.714 14.2205 123.522 13.8293C122.648 13.5574 121.815 13.165 121.049 12.6633C120.364 12.2076 119.792 11.6008 119.377 10.8895C119.101 10.3959 118.916 9.85628 118.831 9.29665C118.665 8.32968 118.719 7.33736 118.99 6.39449C119.348 5.15307 120.098 4.06142 121.127 3.28357C122.28 2.42123 123.619 1.84323 125.037 1.5964C125.664 1.47553 126.299 1.39718 126.937 1.36186C127.44 1.32955 127.943 1.32079 128.447 1.33556C129.974 1.35206 131.488 1.62923 132.922 2.15518C133.96 2.5706 134.924 3.14976 135.779 3.8707C136.181 4.21513 136.566 4.57969 136.931 4.963C137.085 5.11765 137.085 5.13363 136.944 5.2924C136.402 5.91544 135.858 6.53763 135.312 7.15895C134.933 7.59041 134.557 8.02238 134.175 8.45229C133.939 8.71931 133.939 8.71725 133.731 8.42961C133.149 7.59226 132.382 6.90034 131.49 6.40738C130.85 6.07226 130.16 5.84581 129.446 5.73726C128.769 5.63286 128.083 5.60485 127.4 5.65375C126.659 5.66196 125.936 5.88193 125.316 6.28779C124.946 6.53245 124.687 6.91346 124.596 7.34813C124.53 7.61004 124.548 7.88599 124.648 8.13702C124.747 8.38805 124.922 8.60147 125.149 8.74715C125.446 8.95258 125.771 9.11275 126.115 9.22242C126.949 9.49888 127.804 9.70899 128.671 9.85079C130.05 10.0781 131.404 10.435 132.716 10.9168C133.528 11.2083 134.291 11.6212 134.979 12.1416C135.878 12.8319 136.506 13.8175 136.752 14.9252C137.021 16.0251 136.99 17.1774 136.663 18.2614C136.429 19.0019 136.034 19.6811 135.506 20.2496C134.62 21.1932 133.506 21.8921 132.272 22.279C131.279 22.6071 130.251 22.8125 129.209 22.8904C128.708 22.9378 128.215 22.9265 127.925 22.9342Z" fill="#E40E53"/>
<path d="M95.7288 16.2665H90.5849C90.2639 16.2665 90.2582 16.2665 90.3318 16.5758C90.4259 17.0047 90.592 17.4145 90.823 17.7877C91.0158 18.0881 91.2666 18.3469 91.5605 18.5488C91.8545 18.7507 92.1858 18.8917 92.5349 18.9635C93.3648 19.168 94.2352 19.1359 95.0478 18.8708C95.3709 18.774 95.6679 18.6049 95.9164 18.3763C96.1648 18.1477 96.3582 17.8656 96.4819 17.5511C96.5632 17.3449 96.5745 17.3449 96.8014 17.415C97.8555 17.7446 98.9085 18.0754 99.9603 18.4073C100.261 18.5022 100.563 18.5929 100.861 18.6914C101.045 18.7501 101.05 18.7671 100.986 18.9491C100.548 20.1701 99.6799 21.1888 98.5452 21.8136C97.5366 22.37 96.4296 22.7244 95.2859 22.857C94.7573 22.9272 94.2246 22.9626 93.6913 22.9632C92.3368 22.994 90.9873 22.7883 89.7032 22.3554C88.6238 21.992 87.6518 21.3648 86.8749 20.5305C86.0981 19.6962 85.5409 18.6811 85.2536 17.5769C85.0145 16.6898 84.8919 15.7751 84.8889 14.8562C84.8624 13.8098 84.9847 12.7649 85.2521 11.753C85.5883 10.471 86.2817 9.31141 87.251 8.40959C88.1005 7.64217 89.12 7.0884 90.2253 6.79407C90.9944 6.58686 91.7836 6.46312 92.5792 6.42499C93.6598 6.3544 94.7451 6.4328 95.8044 6.65799C96.9116 6.88075 97.949 7.36713 98.8291 8.07607C99.4289 8.56969 99.9343 9.16823 100.321 9.84263C100.833 10.749 101.162 11.7473 101.29 12.7809C101.376 13.3821 101.416 13.9891 101.409 14.5964C101.408 15.0628 101.368 15.5284 101.29 15.9882C101.243 16.2552 101.233 16.2686 100.961 16.2686H95.7288V16.2665ZM93.233 13.2809H95.4624C95.6589 13.2809 95.8533 13.2809 96.0483 13.2773C96.1897 13.2737 96.2088 13.251 96.1897 13.118C96.1244 12.5722 95.9585 12.0433 95.7005 11.5581C95.5259 11.2296 95.2787 10.9453 94.9777 10.7272C94.6767 10.509 94.33 10.3627 93.9639 10.2993C93.5358 10.2154 93.0959 10.2109 92.6661 10.2859C92.1824 10.3606 91.7293 10.57 91.3585 10.8901C91.0552 11.1658 90.8126 11.5018 90.6461 11.8767C90.4647 12.267 90.3382 12.6806 90.27 13.1056C90.2454 13.2603 90.2587 13.2706 90.4156 13.2778C90.4763 13.2814 90.5365 13.2778 90.5972 13.2778L93.233 13.2809Z" fill="white"/>
<path d="M26.968 6.39525C27.9569 6.39771 28.9429 6.49978 29.9114 6.69989C31.3398 6.98291 32.649 7.69319 33.6664 8.73705C33.8254 8.90561 33.9704 9.08551 34.1124 9.26696C34.2199 9.4015 34.2199 9.4216 34.0934 9.54531C33.7333 9.89377 33.3696 10.2366 33.0132 10.583C32.5409 11.0393 32.0699 11.4969 31.6001 11.9557C31.5682 11.9861 31.5358 12.0201 31.5039 12.0485C31.3738 12.1603 31.3393 12.1603 31.2354 12.0201C31.0713 11.8078 30.894 11.606 30.7046 11.416C30.0761 10.7729 29.2632 10.3421 28.379 10.1835C27.5685 10.0123 26.7327 9.99879 25.9171 10.1438C25.5525 10.2029 25.208 10.351 24.9141 10.5752C24.8048 10.642 24.7148 10.7363 24.6531 10.8487C24.5914 10.9611 24.5602 11.0878 24.5624 11.216C24.5647 11.3443 24.6005 11.4697 24.6661 11.5799C24.7318 11.69 24.8251 11.781 24.9367 11.8438C25.1742 12.0026 25.4343 12.1242 25.7083 12.2046C26.3818 12.4163 27.0694 12.5801 27.7659 12.6949C28.795 12.8671 29.8061 13.1339 30.7864 13.4918C31.4809 13.7329 32.1322 14.0845 32.7153 14.533C33.1339 14.8627 33.4792 15.2763 33.7291 15.7474C33.9789 16.2184 34.1279 16.7366 34.1664 17.2687C34.2312 17.948 34.1507 18.6333 33.9303 19.279C33.6363 20.098 33.112 20.8141 32.4206 21.3409C31.4935 22.0526 30.4051 22.5234 29.2524 22.7116C28.5279 22.8428 27.7949 22.9211 27.0591 22.9461C26.5169 22.9709 25.9789 22.9518 25.4382 22.9255C24.0311 22.8873 22.6411 22.6062 21.3293 22.0945C20.3657 21.7139 19.4994 21.1219 18.7938 20.362C18.7635 20.328 18.7352 20.294 18.7033 20.2636C18.6835 20.249 18.6675 20.2299 18.6566 20.2078C18.6457 20.1858 18.6402 20.1615 18.6406 20.1369C18.6409 20.1123 18.6471 20.0881 18.6587 20.0664C18.6702 20.0447 18.6867 20.0261 18.7069 20.012C18.926 19.779 19.1395 19.5388 19.3566 19.3038C20.0081 18.6051 20.658 17.9072 21.3061 17.2099C21.3209 17.1918 21.3367 17.1746 21.3535 17.1584C21.4538 17.0676 21.4821 17.0676 21.5633 17.1831C21.6947 17.3727 21.8366 17.5547 21.9882 17.7285C22.5359 18.3305 23.2377 18.7705 24.0175 19.0007C24.5804 19.1653 25.1607 19.2632 25.7464 19.2924C26.3236 19.3337 26.9037 19.2967 27.4711 19.1826C27.7584 19.1226 28.0311 19.0068 28.2741 18.8419C28.3735 18.782 28.4561 18.6978 28.5141 18.5971C28.5721 18.4965 28.6037 18.3826 28.6057 18.2664C28.6078 18.1502 28.5803 18.0353 28.5259 17.9327C28.4715 17.83 28.3919 17.7429 28.2946 17.6795C28.055 17.5118 27.7921 17.3804 27.5143 17.2893C26.8048 17.0655 26.0816 16.8879 25.3492 16.7573C24.1832 16.5384 23.0438 16.1951 21.9507 15.7331C21.2426 15.4422 20.601 15.0101 20.0649 14.4629C19.4331 13.8005 19.0661 12.9286 19.0335 12.0129C18.943 10.1933 19.7815 8.83808 21.2593 7.83084C22.1948 7.21032 23.2506 6.79488 24.3575 6.61175C25.2191 6.45874 26.093 6.38626 26.968 6.39525Z" fill="white"/>
<path d="M109.277 9.90924C109.462 9.47627 109.676 9.05684 109.92 8.65406C110.305 8.01614 110.838 7.48073 111.474 7.09317C112.11 6.70562 112.829 6.47736 113.572 6.42772C114.141 6.3704 114.715 6.4017 115.274 6.52051C115.442 6.55964 115.605 6.61417 115.763 6.6834C115.813 6.69801 115.856 6.73116 115.883 6.77614C115.909 6.82113 115.918 6.87458 115.907 6.92568C115.865 7.24166 115.831 7.55816 115.789 7.87209C115.678 8.76008 115.565 9.64807 115.451 10.5361C115.423 10.7649 115.395 10.9923 115.361 11.2196C115.34 11.3557 115.309 11.3742 115.181 11.3124C114.665 11.0657 114.102 10.929 113.53 10.9108C112.878 10.8399 112.219 10.9551 111.629 11.2432C111.04 11.5313 110.543 11.9806 110.197 12.5392C109.971 12.9323 109.826 13.3668 109.77 13.8171C109.731 14.0808 109.714 14.3474 109.719 14.614V22.2533C109.719 22.6281 109.719 22.6281 109.335 22.6281C107.733 22.6281 106.132 22.6281 104.533 22.6281C104.166 22.6281 104.166 22.6281 104.166 22.2796C104.164 17.2094 104.164 12.1392 104.166 7.06898C104.166 6.71278 104.166 6.71124 104.529 6.71124H108.723C109.071 6.71124 109.071 6.71897 109.091 7.05403C109.125 7.65249 109.171 8.2489 109.21 8.84685C109.235 9.20098 109.255 9.55511 109.277 9.90924Z" fill="white"/>
<path d="M56.7514 14.6616V7.0887C56.7514 6.71188 56.7514 6.71189 57.1423 6.71189H61.9467C62.296 6.71189 62.3017 6.71755 62.3017 7.05468V22.3825C62.296 22.6057 62.277 22.6283 62.0579 22.6283C60.3744 22.6304 58.6905 22.6304 57.006 22.6283C56.7719 22.6283 56.7565 22.6093 56.7488 22.3706C56.7488 22.3026 56.7488 22.2361 56.7488 22.1701L56.7514 14.6616Z" fill="white"/>
<path d="M145.398 14.6764V22.2478C145.398 22.6246 145.398 22.6246 145.013 22.6246H140.233C139.853 22.6246 139.853 22.6246 139.853 22.2612C139.851 17.1985 139.851 12.1353 139.853 7.07158C139.853 6.71745 139.853 6.71384 140.218 6.71384H145.043C145.39 6.71384 145.398 6.72157 145.398 7.06024L145.398 14.6764Z" fill="#E40E53"/>
</svg>
