<svg width="14" height="15" viewBox="0 0 14 15" fill="none" xmlns="http://www.w3.org/2000/svg">
<g clip-path="url(#clip0_753_1699)">
<path d="M13.9358 3.90083C13.9186 3.88929 13.8983 3.88314 13.8775 3.88314C13.8567 3.88314 13.8364 3.88929 13.8192 3.90083L8.13167 9.58833C7.98334 9.73718 7.80692 9.85508 7.61265 9.93519C7.41838 10.0153 7.21013 10.056 7 10.055C6.5744 10.0542 6.16606 9.88663 5.8625 9.58833L0.180833 3.92416C0.163566 3.91263 0.143266 3.90647 0.1225 3.90647C0.101734 3.90647 0.0814335 3.91263 0.0641667 3.92416C0.0480428 3.93053 0.0337446 3.94078 0.0225482 3.95401C0.0113517 3.96725 0.00360522 3.98304 0 4L0 11C0 11.3094 0.122916 11.6062 0.341709 11.825C0.560501 12.0437 0.857247 12.1667 1.16667 12.1667H12.8333C13.1428 12.1667 13.4395 12.0437 13.6583 11.825C13.8771 11.6062 14 11.3094 14 11V4C14.0005 3.97894 13.9946 3.95822 13.9832 3.94054C13.9717 3.92285 13.9552 3.90902 13.9358 3.90083Z" fill="#CCCCCC"/>
<path d="M6.48053 8.99333C6.6188 9.12768 6.80399 9.20283 6.99678 9.20283C7.18957 9.20283 7.37476 9.12768 7.51303 8.99333L13.1655 3.34083C13.2036 3.30257 13.2303 3.25451 13.2426 3.20198C13.255 3.14946 13.2525 3.09454 13.2355 3.04333C13.1714 2.83333 12.9905 2.83333 12.833 2.83333H1.16636C1.00303 2.83333 0.82803 2.83333 0.763863 3.04333C0.746872 3.09454 0.744419 3.14946 0.756777 3.20198C0.769135 3.25451 0.79582 3.30257 0.833863 3.34083L6.48053 8.99333Z" fill="#CCCCCC"/>
</g>
<defs>
<clipPath id="clip0_753_1699">
<rect width="14" height="14" fill="white" transform="translate(0 0.5)"/>
</clipPath>
</defs>
</svg>
