<svg width="18" height="17" viewBox="0 0 18 17" fill="none" xmlns="http://www.w3.org/2000/svg">
<path d="M8.99999 0.166656C7.35182 0.166656 5.74065 0.655398 4.37024 1.57108C2.99983 2.48675 1.93173 3.78824 1.301 5.31096C0.670267 6.83368 0.505239 8.50923 0.826783 10.1257C1.14833 11.7423 1.942 13.2271 3.10744 14.3925C4.27287 15.558 5.75773 16.3517 7.37424 16.6732C8.99075 16.9947 10.6663 16.8297 12.189 16.199C13.7117 15.5683 15.0132 14.5002 15.9289 13.1297C16.8446 11.7593 17.3333 10.1482 17.3333 8.49999C17.3333 7.40564 17.1178 6.32201 16.699 5.31096C16.2802 4.29991 15.6664 3.38125 14.8925 2.60743C14.1187 1.83361 13.2001 1.21978 12.189 0.800994C11.178 0.382205 10.0943 0.166656 8.99999 0.166656ZM7.33333 12.25V4.74999L12.3333 8.49999L7.33333 12.25Z" fill="#C6C7F1"/>
</svg>
