<svg width="20" height="20" viewBox="0 0 20 20" fill="none" xmlns="http://www.w3.org/2000/svg">
<path d="M9.99984 19.3332C4.8452 19.3332 0.666504 15.1544 0.666504 9.99984C0.666504 4.84525 4.84525 0.666504 9.99984 0.666504C15.1544 0.666504 19.3332 4.84525 19.3332 9.99984C19.3332 15.1544 15.1544 19.3332 9.99984 19.3332ZM6.51978 9.77305C6.11823 9.39382 5.48531 9.41196 5.10609 9.81328C4.72686 10.2148 4.74499 10.8477 5.14655 11.227L8.14643 14.0604C8.57542 14.4655 9.26018 14.4131 9.62244 13.9472L14.2892 7.94719C14.6282 7.51122 14.5496 6.88296 14.1137 6.54374C13.6777 6.20473 13.0495 6.28332 12.7105 6.71928L8.71957 11.8504L6.51978 9.77305Z" fill="#30C746"/>
</svg>
