<svg width="201" height="200" viewBox="0 0 201 200" fill="none" xmlns="http://www.w3.org/2000/svg">
<path d="M100.5 179.2C144.241 179.2 179.7 143.741 179.7 100C179.7 56.2591 144.241 20.8 100.5 20.8C56.7588 20.8 21.2998 56.2591 21.2998 100C21.2998 143.741 56.7588 179.2 100.5 179.2Z" fill="#D9EDFF"/>
<path d="M156.003 41.9465C156.219 41.9863 156.422 42.0752 156.598 42.2062C156.773 42.3375 156.916 42.5074 157.015 42.7028C157.114 42.8983 157.167 43.1141 157.169 43.3331C157.171 43.5522 157.123 43.7689 157.027 43.9661L151.307 55.7431C151.169 56.029 150.939 56.2605 150.654 56.4005C150.369 56.5405 150.045 56.581 149.734 56.5157C149.424 56.4504 149.144 56.2827 148.939 56.0397C148.735 55.7968 148.617 55.4922 148.606 55.1749L148.121 42.2613C148.113 42.0486 148.153 41.8368 148.238 41.6415C148.323 41.4463 148.451 41.2727 148.612 41.1333C148.773 40.9941 148.963 40.8927 149.168 40.8367C149.373 40.7806 149.589 40.7715 149.798 40.8099L156.003 41.9465Z" fill="#D7E6F8" stroke="#020064" stroke-width="2" stroke-linejoin="round"/>
<path d="M126.937 42.7781C126.724 42.8298 126.525 42.93 126.358 43.071C126.189 43.2117 126.056 43.3897 125.969 43.5907C125.881 43.7917 125.841 44.0101 125.851 44.2293C125.862 44.4482 125.923 44.6617 126.03 44.8532L132.408 56.2877C132.562 56.5647 132.805 56.7821 133.097 56.9052C133.389 57.0286 133.714 57.0505 134.02 56.968C134.326 56.8854 134.596 56.7029 134.786 56.4494C134.977 56.1958 135.077 55.8859 135.071 55.5689L134.825 42.6474C134.821 42.4346 134.769 42.2255 134.674 42.0354C134.578 41.8451 134.441 41.679 134.272 41.5491C134.104 41.419 133.908 41.3286 133.7 41.2842C133.491 41.24 133.276 41.243 133.069 41.2931L126.937 42.7781Z" fill="#D7E6F8" stroke="#020064" stroke-width="2" stroke-linejoin="round"/>
<path d="M75.7006 48.6744C75.5309 48.5356 75.3314 48.438 75.1177 48.3891C74.9039 48.3402 74.6817 48.3414 74.4685 48.3925C74.2554 48.4438 74.0568 48.5435 73.8887 48.6841C73.7204 48.8247 73.587 49.0023 73.4989 49.2031L68.236 61.192C68.1103 61.4819 68.0848 61.8052 68.1634 62.1111C68.242 62.417 68.4202 62.6881 68.6698 62.8815C68.9195 63.0748 69.2264 63.1795 69.5422 63.1791C69.8582 63.1787 70.1649 63.0732 70.414 62.8789L80.5635 54.8797C80.731 54.7481 80.8669 54.5804 80.9609 54.3891C81.055 54.1978 81.1046 53.988 81.1066 53.7747C81.1084 53.5617 81.0625 53.3508 80.9718 53.1579C80.8813 52.9651 80.7484 52.7948 80.5833 52.6602L75.7006 48.6744Z" fill="#D7E6F8" stroke="#020064" stroke-width="2" stroke-linejoin="round"/>
<path d="M51.4809 40.1209C51.2619 40.1136 51.0441 40.1569 50.8447 40.2476C50.6454 40.3383 50.4693 40.4739 50.3309 40.6436C50.1923 40.8133 50.0949 41.0129 50.046 41.2263C49.9973 41.44 49.9983 41.6619 50.0494 41.8752L53.1124 54.6046C53.1867 54.9127 53.3619 55.1871 53.61 55.3843C53.8583 55.5815 54.1652 55.6902 54.4822 55.693C54.7992 55.6956 55.1081 55.5924 55.3595 55.3994C55.6112 55.2065 55.791 54.9351 55.8706 54.6284L59.1178 42.1187C59.1724 41.9122 59.1798 41.6962 59.1394 41.4865C59.0988 41.2768 59.0117 41.079 58.8841 40.9078C58.7566 40.7365 58.5921 40.5963 58.4028 40.4973C58.2137 40.3985 58.0046 40.3435 57.7912 40.3367L51.4809 40.1209Z" fill="#D7E6F8" stroke="#020064" stroke-width="2" stroke-linejoin="round"/>
<path d="M62.4842 83.2808C62.1932 76.8795 61.0487 63.2254 55.7839 63.9956C55.2847 64.0683 54.8048 64.2386 54.3716 64.497C53.9383 64.7554 53.5604 65.0965 53.259 65.5012C52.9578 65.9057 52.7392 66.3657 52.6161 66.8547C52.4927 67.344 52.4672 67.8525 52.5406 68.3516L52.7248 69.6188C54.0831 78.905 51.4734 89.205 43.6821 90.3435L46.5135 109.763L47.5035 109.619C52.3743 108.906 55.1721 111.947 63.894 110.672L78.6806 108.514C79.5764 108.383 80.3834 107.901 80.9241 107.174C81.4647 106.448 81.6948 105.537 81.5635 104.641C81.4322 103.745 80.9503 102.938 80.224 102.398C79.4978 101.857 78.5864 101.627 77.6906 101.758L79.3796 101.513C80.2753 101.381 81.0824 100.899 81.6231 100.173C82.1636 99.4469 82.3937 98.5355 82.2624 97.6398C82.1312 96.7438 81.6492 95.9368 80.923 95.3962C80.1967 94.8555 79.2853 94.6256 78.3896 94.7569L80.0785 94.5114C80.9742 94.3801 81.7813 93.8982 82.322 93.1719C82.8626 92.4456 83.0926 91.5343 82.9614 90.6385C82.8299 89.7426 82.3482 88.9355 81.6219 88.395C80.8956 87.8542 79.9842 87.6243 79.0885 87.7556L80.7754 87.5101C81.6712 87.3788 82.4782 86.8969 83.019 86.1706C83.5595 85.4444 83.7896 84.533 83.6583 83.6372C83.5269 82.7413 83.0451 81.9342 82.3189 81.3937C81.5926 80.853 80.6812 80.6231 79.7854 80.7543L62.4842 83.2808Z" fill="white"/>
<path d="M59.1099 83.7738L62.4877 83.2808" stroke="#020064" stroke-width="2" stroke-linecap="round" stroke-linejoin="round"/>
<path d="M77.6924 101.754L76.0034 102.002" stroke="#020064" stroke-width="2" stroke-linecap="round" stroke-linejoin="round"/>
<path d="M78.3935 94.7529L76.7065 95.0004" stroke="#020064" stroke-width="2" stroke-linecap="round" stroke-linejoin="round"/>
<path d="M79.0962 87.7517L77.4072 87.9992" stroke="#020064" stroke-width="2" stroke-linecap="round" stroke-linejoin="round"/>
<path d="M41.6047 111.545C41.6499 111.85 41.6344 112.161 41.5594 112.46C41.4843 112.759 41.3509 113.04 41.1669 113.288C40.9832 113.535 40.7521 113.744 40.4876 113.902C40.2229 114.06 39.9296 114.164 39.6247 114.209L24.8856 116.846C23.9564 111.588 23.4925 106.258 23.4996 100.919C23.5008 97.3461 23.7051 93.7764 24.1114 90.2268L36.3874 87.9676C36.6165 87.9332 36.8499 87.9441 37.0747 88.0001C37.2994 88.056 37.5109 88.1555 37.697 88.2934C37.8831 88.4312 38.0403 88.6042 38.1595 88.8028C38.2785 89.0014 38.3573 89.2216 38.3912 89.4507L41.6047 111.545Z" fill="#D7E6F8"/>
<path d="M24.1074 90.2465V90.2226L36.3834 87.9636C36.6123 87.9289 36.8459 87.94 37.0707 87.9959C37.2954 88.0517 37.5069 88.1515 37.693 88.2891C37.8791 88.4269 38.0363 88.6002 38.1553 88.7988C38.2745 88.9973 38.3533 89.2173 38.3872 89.4464L41.6146 111.545C41.6597 111.85 41.6443 112.161 41.5692 112.46C41.494 112.759 41.3607 113.04 41.1768 113.287C40.9929 113.535 40.762 113.743 40.4975 113.902C40.2327 114.06 39.9395 114.164 39.6346 114.208L24.8955 116.846" stroke="#020064" stroke-width="2" stroke-linecap="round" stroke-linejoin="round"/>
<path d="M41.706 112.189L44.4404 111.793C45.0568 111.699 45.611 111.366 45.982 110.865C46.3531 110.364 46.5107 109.737 46.4204 109.12L43.7692 90.9851C43.6763 90.3689 43.3431 89.8147 42.8425 89.4437C42.342 89.0726 41.7147 88.9148 41.0981 89.0051L38.3638 89.4011L41.706 112.189Z" fill="white" stroke="#020064" stroke-width="2" stroke-linecap="round" stroke-linejoin="round"/>
<path d="M62.4842 83.2808C62.1932 76.8795 61.0487 63.2254 55.7839 63.9956C55.2847 64.0683 54.8048 64.2386 54.3716 64.497C53.9383 64.7554 53.5604 65.0965 53.259 65.5012C52.9578 65.9057 52.7392 66.3657 52.6161 66.8547C52.4927 67.344 52.4672 67.8525 52.5406 68.3516L52.7248 69.6188C54.0831 78.905 51.4734 89.205 43.6821 90.3435L46.5135 109.763L47.5035 109.619C52.3743 108.906 55.1721 111.947 63.894 110.672L78.6806 108.514C79.5764 108.383 80.3834 107.901 80.9241 107.174C81.4647 106.448 81.6948 105.537 81.5635 104.641C81.4322 103.745 80.9503 102.938 80.224 102.398C79.4978 101.857 78.5864 101.627 77.6906 101.758L79.3796 101.513C80.2753 101.381 81.0824 100.899 81.6231 100.173C82.1636 99.4469 82.3937 98.5355 82.2624 97.6398C82.1312 96.7438 81.6492 95.9368 80.923 95.3962C80.1967 94.8555 79.2853 94.6256 78.3896 94.7569L80.0785 94.5114C80.9742 94.3801 81.7813 93.8982 82.322 93.1719C82.8626 92.4456 83.0926 91.5343 82.9614 90.6385C82.8299 89.7426 82.3482 88.9355 81.6219 88.395C80.8956 87.8542 79.9842 87.6243 79.0885 87.7556L80.7754 87.5101C81.6712 87.3788 82.4782 86.8969 83.019 86.1706C83.5595 85.4444 83.7896 84.533 83.6583 83.6372C83.5269 82.7413 83.0451 81.9342 82.3189 81.3937C81.5926 80.853 80.6812 80.6231 79.7854 80.7543L62.4842 83.2808Z" stroke="#020064" stroke-width="2" stroke-linejoin="round"/>
<path d="M138.013 83.2808C138.304 76.8795 139.448 63.2254 144.713 63.9956C145.212 64.0683 145.692 64.2386 146.125 64.497C146.559 64.7554 146.937 65.0965 147.238 65.5012C147.539 65.9057 147.758 66.3657 147.881 66.8547C148.004 67.344 148.03 67.8525 147.956 68.3516L147.772 69.6188C146.414 78.905 149.024 89.205 156.815 90.3435L153.984 109.763L152.994 109.619C148.125 108.906 145.325 111.947 136.603 110.672L121.82 108.514C120.925 108.383 120.117 107.901 119.577 107.174C119.036 106.448 118.806 105.537 118.938 104.641C119.069 103.745 119.551 102.938 120.277 102.398C121.003 101.857 121.915 101.627 122.81 101.758L121.122 101.513C120.226 101.381 119.419 100.899 118.878 100.173C118.337 99.4469 118.107 98.5355 118.239 97.6398C118.37 96.7438 118.852 95.9368 119.578 95.3962C120.304 94.8555 121.216 94.6256 122.112 94.7569L120.423 94.5114C119.527 94.3801 118.72 93.8982 118.179 93.1719C117.638 92.4456 117.408 91.5343 117.54 90.6385C117.671 89.7426 118.153 88.9355 118.879 88.395C119.605 87.8542 120.517 87.6243 121.413 87.7556L119.724 87.5101C118.828 87.3788 118.021 86.8969 117.48 86.1706C116.939 85.4444 116.71 84.533 116.841 83.6372C116.972 82.7413 117.454 81.9342 118.18 81.3937C118.906 80.853 119.818 80.6231 120.714 80.7543L138.013 83.2808Z" fill="white"/>
<path d="M141.391 83.7738L138.013 83.2808" stroke="#020064" stroke-width="2" stroke-linecap="round" stroke-linejoin="round"/>
<path d="M122.809 101.754L124.498 102.002" stroke="#020064" stroke-width="2" stroke-linecap="round" stroke-linejoin="round"/>
<path d="M122.108 94.7529L123.797 95.0004" stroke="#020064" stroke-width="2" stroke-linecap="round" stroke-linejoin="round"/>
<path d="M121.407 87.7517L123.096 87.9992" stroke="#020064" stroke-width="2" stroke-linecap="round" stroke-linejoin="round"/>
<path d="M177.029 100.396C177.031 105.711 176.573 111.016 175.663 116.252L160.89 114.208C160.583 114.167 160.287 114.064 160.02 113.908C159.752 113.751 159.519 113.543 159.332 113.295C159.146 113.047 159.011 112.765 158.934 112.465C158.857 112.165 158.841 111.852 158.886 111.545L162.11 89.4465C162.183 88.9822 162.437 88.5656 162.817 88.2878C163.196 88.01 163.67 87.8935 164.135 87.9634L176.393 89.6346C176.819 93.2059 177.032 96.7994 177.029 100.396Z" fill="#D7E6F8"/>
<path d="M175.663 116.256L160.89 114.208C160.583 114.167 160.287 114.064 160.02 113.908C159.752 113.751 159.519 113.543 159.332 113.295C159.146 113.047 159.011 112.765 158.934 112.465C158.857 112.165 158.841 111.852 158.886 111.545L162.11 89.4465C162.183 88.9822 162.437 88.5656 162.817 88.2878C163.196 88.01 163.67 87.8935 164.135 87.9634L176.393 89.6346" stroke="#020064" stroke-width="2" stroke-linecap="round" stroke-linejoin="round"/>
<path d="M158.797 112.189L156.061 111.793C155.443 111.702 154.886 111.369 154.513 110.868C154.14 110.367 153.981 109.738 154.071 109.12L156.732 90.9831C156.825 90.3669 157.158 89.8127 157.659 89.4417C158.16 89.0706 158.787 88.9128 159.403 89.0031L162.14 89.3991L158.797 112.189Z" fill="white" stroke="#020064" stroke-width="2" stroke-linecap="round" stroke-linejoin="round"/>
<path d="M138.013 83.2808C138.304 76.8795 139.448 63.2254 144.713 63.9956C145.212 64.0683 145.692 64.2386 146.125 64.497C146.559 64.7554 146.937 65.0965 147.238 65.5012C147.539 65.9057 147.758 66.3657 147.881 66.8547C148.004 67.344 148.03 67.8525 147.956 68.3516L147.772 69.6188C146.414 78.905 149.024 89.205 156.815 90.3435L153.984 109.763L152.994 109.619C148.125 108.906 145.325 111.947 136.603 110.672L121.82 108.514C120.925 108.383 120.117 107.901 119.577 107.174C119.036 106.448 118.806 105.537 118.938 104.641C119.069 103.745 119.551 102.938 120.277 102.398C121.003 101.857 121.915 101.627 122.81 101.758L121.122 101.513C120.226 101.381 119.419 100.899 118.878 100.173C118.337 99.4469 118.107 98.5355 118.239 97.6398C118.37 96.7438 118.852 95.9368 119.578 95.3962C120.304 94.8555 121.216 94.6256 122.112 94.7569L120.423 94.5114C119.527 94.3801 118.72 93.8982 118.179 93.1719C117.638 92.4456 117.408 91.5343 117.54 90.6385C117.671 89.7426 118.153 88.9355 118.879 88.395C119.605 87.8542 120.517 87.6243 121.413 87.7556L119.724 87.5101C118.828 87.3788 118.021 86.8969 117.48 86.1706C116.939 85.4444 116.71 84.533 116.841 83.6372C116.972 82.7413 117.454 81.9342 118.18 81.3937C118.906 80.853 119.818 80.6231 120.714 80.7543L138.013 83.2808Z" stroke="#020064" stroke-width="2" stroke-linejoin="round"/>
<path d="M94.6967 131.927C95.36 123.33 97.4687 105.009 104.527 106.267C105.876 106.508 107.074 107.275 107.858 108.399C108.642 109.523 108.947 110.913 108.707 112.262L108.404 113.959C106.183 126.395 109.258 140.36 119.69 142.221L115.059 168.227L113.724 167.989C107.204 166.825 103.31 170.797 91.6297 168.712L71.8455 165.182C70.646 164.967 69.5808 164.286 68.884 163.286C68.1872 162.287 67.916 161.052 68.13 159.852C68.3439 158.653 69.0256 157.588 70.0251 156.891C71.0244 156.194 72.2597 155.923 73.4592 156.137L71.198 155.741C70.604 155.635 70.037 155.413 69.5289 155.087C69.0208 154.762 68.5817 154.34 68.2367 153.845C67.8918 153.35 67.6479 152.792 67.5186 152.203C67.3893 151.614 67.3774 151.005 67.4835 150.411C67.5895 149.817 67.8116 149.25 68.1368 148.742C68.4621 148.234 68.8842 147.795 69.3792 147.45C69.8742 147.105 70.4322 146.861 71.0214 146.731C71.6109 146.602 72.2197 146.59 72.8137 146.696L70.5525 146.3C69.9585 146.194 69.3915 145.972 68.8832 145.647C68.3751 145.322 67.936 144.9 67.5911 144.405C67.2459 143.91 67.0018 143.352 66.8725 142.763C66.743 142.174 66.731 141.565 66.8371 140.971C66.943 140.377 67.1648 139.81 67.4901 139.302C67.8152 138.794 68.2371 138.355 68.7321 138.01C69.2269 137.665 69.7849 137.421 70.3742 137.291C70.9634 137.162 71.5722 137.15 72.1662 137.256L69.9051 136.86C68.7056 136.646 67.6404 135.964 66.9436 134.965C66.2468 133.965 65.9756 132.73 66.1896 131.53C66.4035 130.331 67.0852 129.266 68.0847 128.569C69.084 127.872 70.3193 127.601 71.5188 127.815L94.6967 131.927Z" fill="white"/>
<path d="M99.2191 132.735L94.6968 131.927" stroke="#020064" stroke-width="2" stroke-linecap="round" stroke-linejoin="round"/>
<path d="M73.459 156.137L75.7201 156.539" stroke="#020064" stroke-width="2" stroke-linecap="round" stroke-linejoin="round"/>
<path d="M72.8135 146.688L75.0746 147.09" stroke="#020064" stroke-width="2" stroke-linecap="round" stroke-linejoin="round"/>
<path d="M72.166 137.24L74.4272 137.644" stroke="#020064" stroke-width="2" stroke-linecap="round" stroke-linejoin="round"/>
<path d="M164.003 145.467C153.455 158.744 139.369 168.769 123.369 174.385L123.278 174.363C122.681 174.252 122.153 173.909 121.809 173.41C121.464 172.91 121.332 172.295 121.44 171.698L126.883 141.172C126.935 140.874 127.044 140.589 127.206 140.334C127.368 140.079 127.579 139.858 127.827 139.685C128.075 139.512 128.355 139.389 128.65 139.325C128.946 139.261 129.251 139.256 129.549 139.311L164.003 145.467Z" fill="#D7E6F8"/>
<path d="M123.393 174.385H123.369L123.278 174.363C122.681 174.252 122.153 173.909 121.809 173.41C121.464 172.91 121.332 172.295 121.44 171.698L126.883 141.172C126.935 140.874 127.044 140.589 127.206 140.334C127.368 140.079 127.579 139.858 127.827 139.685C128.075 139.512 128.355 139.389 128.65 139.325C128.946 139.261 129.251 139.256 129.549 139.311L164.001 145.467" stroke="#020064" stroke-width="2" stroke-linecap="round" stroke-linejoin="round"/>
<path d="M121.429 171.698L116.906 170.884C116.307 170.777 115.775 170.436 115.427 169.937C115.078 169.438 114.943 168.82 115.049 168.221L119.69 142.216C119.798 141.617 120.14 141.085 120.639 140.736C121.139 140.388 121.756 140.252 122.355 140.358L126.878 141.166L121.429 171.698Z" fill="white" stroke="#020064" stroke-width="2" stroke-linecap="round" stroke-linejoin="round"/>
<path d="M94.6967 131.927C95.36 123.33 97.4687 105.009 104.527 106.267C105.876 106.508 107.074 107.275 107.858 108.399C108.642 109.523 108.947 110.913 108.707 112.262L108.404 113.959C106.183 126.395 109.258 140.36 119.69 142.221L115.059 168.227L113.724 167.989C107.204 166.825 103.31 170.797 91.6297 168.712L71.8455 165.182C70.646 164.967 69.5808 164.286 68.884 163.286C68.1872 162.287 67.916 161.052 68.13 159.852C68.3439 158.653 69.0256 157.588 70.0251 156.891C71.0244 156.194 72.2597 155.923 73.4592 156.137L71.198 155.741C70.604 155.635 70.037 155.413 69.5289 155.087C69.0208 154.762 68.5817 154.34 68.2367 153.845C67.8918 153.35 67.6479 152.792 67.5186 152.203C67.3893 151.614 67.3774 151.005 67.4835 150.411C67.5895 149.817 67.8116 149.25 68.1368 148.742C68.4621 148.234 68.8842 147.795 69.3792 147.45C69.8742 147.105 70.4322 146.861 71.0214 146.731C71.6109 146.602 72.2197 146.59 72.8137 146.696L70.5525 146.3C69.9585 146.194 69.3915 145.972 68.8832 145.647C68.3751 145.322 67.936 144.9 67.5911 144.405C67.2459 143.91 67.0018 143.352 66.8725 142.763C66.743 142.174 66.731 141.565 66.8371 140.971C66.943 140.377 67.1648 139.81 67.4901 139.302C67.8152 138.794 68.2371 138.355 68.7321 138.01C69.2269 137.665 69.7849 137.421 70.3742 137.291C70.9634 137.162 71.5722 137.15 72.1662 137.256L69.9051 136.86C68.7056 136.646 67.6404 135.964 66.9436 134.965C66.2468 133.965 65.9756 132.73 66.1896 131.53C66.4035 130.331 67.0852 129.266 68.0847 128.569C69.084 127.872 70.3193 127.601 71.5188 127.815L94.6967 131.927Z" stroke="#020064" stroke-width="2" stroke-linejoin="round"/>
</svg>
