<svg width="14" height="13" viewBox="0 0 14 13" fill="none" xmlns="http://www.w3.org/2000/svg">
<path fill-rule="evenodd" clip-rule="evenodd" d="M3.5 3.5C3.5 1.567 5.06701 0 7 0C8.933 0 10.5 1.567 10.5 3.5C10.5 5.433 8.933 7 7 7C5.06701 7 3.5 5.433 3.5 3.5ZM6.99989 8C4.08715 8 1.59107 9.7789 0.536568 12.3076C0.472213 12.4619 0.489255 12.6382 0.581982 12.7773C0.674709 12.9164 0.830846 13 0.998049 13H13.0017C13.1689 13 13.3251 12.9164 13.4178 12.7773C13.5105 12.6382 13.5276 12.4619 13.4632 12.3076C12.4087 9.7789 9.91262 8 6.99989 8Z" fill="#CCCCCC"/>
</svg>
